<svg width="25" height="25" viewBox="0 0 25 25" fill="none" xmlns="http://www.w3.org/2000/svg">
<path d="M5.02569 0.841888L3.97975 3.97972L0.841919 5.02566V5.97434L3.97975 7.02029L5.02569 10.1581H5.97437L7.02032 7.02029L10.1581 5.97434V5.02566L7.02032 3.97972L5.97437 0.841888H5.02569Z" fill="black"/>
<path d="M13 11C11.8954 11 11 11.8954 11 13C11 14.1046 11.8954 15 13 15C14.1046 15 15 14.1046 15 13C15 11.8954 14.1046 11 13 11Z" fill="black"/>
<path fill-rule="evenodd" clip-rule="evenodd" d="M3 12V15.2413C2.99999 16.0463 2.99998 16.7106 3.04419 17.2518C3.09012 17.8139 3.18868 18.3306 3.43598 18.816C3.81947 19.5686 4.43139 20.1805 5.18404 20.564C5.66937 20.8113 6.18608 20.9099 6.74818 20.9558C7.28936 21 7.95372 21 8.75868 21H17.2413C18.0463 21 18.7106 21 19.2518 20.9558C19.8139 20.9099 20.3306 20.8113 20.816 20.564C21.5686 20.1805 22.1805 19.5686 22.564 18.816C22.8113 18.3306 22.9099 17.8139 22.9558 17.2518C23 16.7106 23 16.0463 23 15.2413L23.0001 10.0459C23.0007 9.08086 23.0012 8.36316 22.8001 7.75118C22.4033 6.54374 21.4563 5.59673 20.2488 5.19993C19.6368 4.99882 18.9191 4.99929 17.9541 4.99992L17.909 4.99995L17.0402 4.14629C16.7537 3.86429 16.501 3.61564 16.1978 3.43241C15.9315 3.27143 15.6416 3.15289 15.3388 3.08103C14.9941 2.99925 14.6396 2.99957 14.2376 2.99994L11.9999 2.99999L12 7L8.49998 8.5L6.99998 12H3ZM9 13C9 10.7909 10.7909 9 13 9C15.2091 9 17 10.7909 17 13C17 15.2091 15.2091 17 13 17C10.7909 17 9 15.2091 9 13Z" fill="black"/>
</svg>
