<svg width="96" height="111" viewBox="0 0 96 111" fill="none" xmlns="http://www.w3.org/2000/svg">
<path fill-rule="evenodd" clip-rule="evenodd" d="M30.9832 26.25H65.0168C69.2429 26.2499 72.7308 26.2499 75.5721 26.482C78.5231 26.7231 81.2358 27.2406 83.7838 28.5389C87.7352 30.5522 90.9478 33.7648 92.9611 37.7162C94.2594 40.2642 94.7769 42.9769 95.018 45.9279C95.2501 48.7692 95.2501 52.257 95.25 56.4831V80.017C95.2501 84.243 95.2501 87.7308 95.018 90.5721C94.7769 93.5231 94.2594 96.2358 92.9611 98.7838C90.9478 102.735 87.7352 105.948 83.7838 107.961C81.2358 109.259 78.5231 109.777 75.5721 110.018C72.7308 110.25 69.2429 110.25 65.0167 110.25H30.9833C26.7572 110.25 23.2692 110.25 20.4279 110.018C17.4769 109.777 14.7642 109.259 12.2162 107.961C8.2648 105.948 5.05221 102.735 3.03887 98.7838C1.74059 96.2358 1.22313 93.5231 0.982021 90.5721C0.74988 87.7308 0.749935 84.2429 0.750002 80.0168V56.4832C0.749935 52.2571 0.74988 48.7692 0.982021 45.9279C1.22313 42.9769 1.74059 40.2642 3.03887 37.7162C5.05221 33.7648 8.2648 30.5522 12.2162 28.5389C14.7642 27.2406 17.4769 26.7231 20.4279 26.482C23.2692 26.2499 26.7571 26.2499 30.9832 26.25ZM21.283 36.9471C18.9813 37.1352 17.8042 37.4761 16.9831 37.8944C15.0074 38.9011 13.4011 40.5074 12.3944 42.4831C11.9761 43.3042 11.6352 44.4813 11.4472 46.7829C11.2541 49.1459 11.25 52.203 11.25 56.7V79.8C11.25 84.297 11.2541 87.3541 11.4472 89.7171C11.6352 92.0187 11.9761 93.1958 12.3944 94.0169C13.4011 95.9926 15.0074 97.5989 16.9831 98.6056C17.8042 99.0239 18.9813 99.3648 21.283 99.5529C23.6459 99.7459 26.703 99.75 31.2 99.75H64.8C69.2971 99.75 72.3541 99.7459 74.7171 99.5529C77.0187 99.3648 78.1958 99.0239 79.0169 98.6056C80.9926 97.5989 82.5989 95.9926 83.6056 94.0169C84.0239 93.1958 84.3648 92.0187 84.5529 89.7171C84.7459 87.3541 84.75 84.297 84.75 79.8V56.7C84.75 52.203 84.7459 49.1459 84.5529 46.7829C84.3648 44.4813 84.0239 43.3042 83.6056 42.4831C82.5989 40.5074 80.9926 38.9011 79.0169 37.8944C78.1958 37.4761 77.0187 37.1352 74.7171 36.9471C72.3541 36.7541 69.2971 36.75 64.8 36.75H31.2C26.703 36.75 23.6459 36.7541 21.283 36.9471Z" fill="#FFFCFF"/>
<path fill-rule="evenodd" clip-rule="evenodd" d="M37.5002 12.7575L37.5 15.7503L27 15.7497L27.0005 8.38955L28.4609 6.86646C29.7341 5.53863 31.6333 3.60756 34.9532 2.16714C38.1639 0.774072 42.3044 0 48.0002 0C53.6962 0 57.8366 0.774131 61.0473 2.16724C64.3671 3.60769 66.2663 5.53876 67.5393 6.86634L69 8.38959V15.75H58.5V12.7574C58.0353 12.3948 57.5258 12.0851 56.8679 11.7996C55.3986 11.1621 52.8041 10.5 48.0002 10.5C43.1964 10.5 40.6018 11.1621 39.1325 11.7996C38.4745 12.0851 37.9649 12.3948 37.5002 12.7575Z" fill="#FFFCFF"/>
<path fill-rule="evenodd" clip-rule="evenodd" d="M48.0028 89.25C41.751 89.2534 35.3652 87.6489 29.1 82.95L35.4 74.55C39.6348 77.7261 43.7399 78.7523 47.9972 78.75C52.2543 78.7477 56.3687 77.7235 60.6 74.55L66.9 82.95C60.6313 87.6515 54.2366 89.2466 48.0028 89.25Z" fill="#FFFCFF"/>
<path d="M21.75 60.375C21.75 56.0258 25.2758 52.5 29.625 52.5C33.9742 52.5 37.5 56.0258 37.5 60.375C37.5 64.7242 33.9742 68.25 29.625 68.25C25.2758 68.25 21.75 64.7242 21.75 60.375Z" fill="#FFFCFF"/>
<path d="M58.5 60.375C58.5 56.0258 62.0258 52.5 66.375 52.5C70.7243 52.5 74.25 56.0258 74.25 60.375C74.25 64.7242 70.7243 68.25 66.375 68.25C62.0258 68.25 58.5 64.7242 58.5 60.375Z" fill="#FFFCFF"/>
</svg>
