<svg width="171" height="175" viewBox="0 0 171 175" fill="none" xmlns="http://www.w3.org/2000/svg">
<path d="M72.8584 165.164C111.355 175.48 150.959 151.605 161.518 112.197C172.077 72.7893 149.717 32.3116 111.22 21.9963C72.7231 11.6811 33.1199 35.5559 22.5607 74.9636C12.0014 114.371 34.3614 154.849 72.8584 165.164Z" fill="#021024" fill-opacity="0.1"/>
<path d="M69.3684 157.56C105.977 167.369 143.808 144.682 153.913 106.968C164.019 69.2547 142.6 30.6911 105.991 20.8819C69.3826 11.0727 31.5514 33.7602 21.4461 71.4737C11.3408 109.187 32.7598 147.751 69.3684 157.56Z" fill="#B96F00" stroke="#975100" stroke-width="2"/>
<path d="M65.009 153.201C101.618 163.01 139.449 140.322 149.554 102.609C159.659 64.8954 138.24 26.3317 101.632 16.5225C65.0233 6.71329 27.192 29.4008 17.0867 67.1144C6.98141 104.828 28.4005 143.391 65.009 153.201Z" fill="#F9B300" stroke="#975100" stroke-width="2"/>
<path d="M68.3938 140.568C98.0323 148.51 128.688 129.954 136.922 99.224C145.156 68.4942 127.885 37.0966 98.2469 29.155C68.6084 21.2134 37.9532 39.7694 29.7191 70.4992C21.4851 101.229 38.7553 132.627 68.3938 140.568Z" fill="#FFCF23" stroke="#DF8D12" stroke-width="2"/>
<path fill-rule="evenodd" clip-rule="evenodd" d="M123.784 46.0491C117.795 40.7121 110.552 36.6787 102.348 34.4803C73.2779 26.6911 43.1453 44.8849 35.0445 75.1174C29.8171 94.6263 35.0413 114.381 47.2162 128.033C31.987 114.461 24.8708 92.4576 30.6852 70.758C38.7859 40.5256 68.9185 22.3317 97.9882 30.1209C108.299 32.8838 117.092 38.5446 123.784 46.0491Z" fill="#FFDD65"/>
<circle cx="118.83" cy="110.41" r="3.09531" transform="rotate(-24.5189 118.83 110.41)" fill="#F9B300"/>
<circle cx="131.297" cy="97.9193" r="3.09531" transform="rotate(-24.5189 131.297 97.9193)" fill="#F9B300"/>
<circle cx="116.204" cy="96.6628" r="3.09531" transform="rotate(-24.5189 116.204 96.6628)" fill="#F9B300"/>
<circle cx="123.39" cy="100.856" r="2.15566" transform="rotate(-24.5189 123.39 100.856)" fill="#F9B300"/>
<circle cx="122.552" cy="91.3984" r="2.15566" transform="rotate(-24.5189 122.552 91.3984)" fill="#F9B300"/>
<circle cx="132.397" cy="89.2764" r="2.15566" transform="rotate(-24.5189 132.397 89.2764)" fill="#F9B300"/>
<circle cx="133.669" cy="75.8171" r="2.15566" transform="rotate(-24.5189 133.669 75.8171)" fill="#F9B300"/>
<circle cx="126.998" cy="84.6314" r="2.15566" transform="rotate(-24.5189 126.998 84.6314)" fill="#F9B300"/>
<circle cx="128.76" cy="106.609" r="2.15566" transform="rotate(-24.5189 128.76 106.609)" fill="#F9B300"/>
<circle cx="119.104" cy="119.262" r="1.99225" transform="rotate(-24.5189 119.104 119.262)" fill="#F9B300"/>
<circle cx="124.497" cy="113.533" r="1.21898" transform="rotate(-24.5189 124.497 113.533)" fill="#F9B300"/>
<circle cx="115.482" cy="103.736" r="1.6582" transform="rotate(-24.5189 115.482 103.736)" fill="#F9B300"/>
<circle cx="128.091" cy="77.5712" r="1.6582" transform="rotate(-24.5189 128.091 77.5712)" fill="#F9B300"/>
<circle cx="133.067" cy="83.686" r="1.6582" transform="rotate(-24.5189 133.067 83.686)" fill="#F9B300"/>
<circle cx="113.356" cy="115.458" r="1.6582" transform="rotate(-24.5189 113.356 115.458)" fill="#F9B300"/>
<circle cx="112.418" cy="125.121" r="1.6582" transform="rotate(-24.5189 112.418 125.121)" fill="#F9B300"/>
<path d="M106.888 68.628C103.327 63.1297 99.2825 59.896 90.2238 57.958C81.1651 56.0201 71.3797 57.4791 69.1995 67.6701C67.0193 77.8611 75.3512 83.1961 84.4098 85.1341C93.4685 87.072 101.8 92.407 99.6202 102.598C97.44 112.789 87.6546 114.248 78.5959 112.31C69.5372 110.372 64.2249 105.683 61.9321 101.64" stroke="#B96F00" stroke-width="8" stroke-linecap="round" stroke-linejoin="round"/>
<path d="M93.1311 44.3701L90.3951 57.1588" stroke="#B96F00" stroke-width="8" stroke-linecap="round" stroke-linejoin="round"/>
<path d="M78.5959 112.31L75.86 125.099" stroke="#B96F00" stroke-width="8" stroke-linecap="round" stroke-linejoin="round"/>
<path d="M106.888 68.628C103.327 63.1297 99.2825 59.896 90.2238 57.958C81.1651 56.0201 71.3797 57.4791 69.1995 67.6701C67.0193 77.8611 75.3512 83.1961 84.4098 85.1341C93.4685 87.072 101.8 92.407 99.6202 102.598C97.44 112.789 87.6546 114.248 78.5959 112.31C69.5372 110.372 64.2249 105.683 61.9321 101.64" stroke="#DF8D12" stroke-width="3" stroke-linecap="round" stroke-linejoin="round"/>
<path d="M93.1311 44.3701L90.3951 57.1588" stroke="#DF8D12" stroke-width="3" stroke-linecap="round" stroke-linejoin="round"/>
<path d="M78.5959 112.31L75.86 125.099" stroke="#DF8D12" stroke-width="3" stroke-linecap="round" stroke-linejoin="round"/>
<path d="M68.0623 21.8218C47.8155 27.4099 31.5071 42.4907 24.2263 61.9749" stroke="#FFD363" stroke-width="2" stroke-linecap="round" stroke-linejoin="round"/>
<path d="M117.299 139.354C124.986 134.243 131.53 127.548 136.465 119.737" stroke="#FFDB5B" stroke-width="2" stroke-linecap="round" stroke-linejoin="round"/>
<path d="M46.2656 32.5492C46.2656 32.5492 39.7266 36.9086 35.3672 43.4476" stroke="#FFE9AF" stroke-width="2" stroke-linecap="round" stroke-linejoin="round"/>
<path d="M54.9841 43.4476C54.9841 43.4476 48.4451 47.807 44.0857 54.346" stroke="white" stroke-width="2" stroke-linecap="round" stroke-linejoin="round"/>
</svg>
