<svg width="25" height="24" viewBox="0 0 25 24" fill="none" xmlns="http://www.w3.org/2000/svg">
<g id="fi-rr-credit-card" clip-path="url(#clip0_4_1130)">
<path id="Vector" d="M6.00012 17.0001C6.82855 17.0001 7.50012 16.3285 7.50012 15.5001C7.50012 14.6717 6.82855 14.0001 6.00012 14.0001C5.17169 14.0001 4.50012 14.6717 4.50012 15.5001C4.50012 16.3285 5.17169 17.0001 6.00012 17.0001Z" fill="#374957"/>
<path id="Vector_2" d="M19.5 3H5.5C4.17441 3.00159 2.90356 3.52888 1.96622 4.46622C1.02888 5.40356 0.501588 6.67441 0.5 8L0.5 16C0.501588 17.3256 1.02888 18.5964 1.96622 19.5338C2.90356 20.4711 4.17441 20.9984 5.5 21H19.5C20.8256 20.9984 22.0964 20.4711 23.0338 19.5338C23.9711 18.5964 24.4984 17.3256 24.5 16V8C24.4984 6.67441 23.9711 5.40356 23.0338 4.46622C22.0964 3.52888 20.8256 3.00159 19.5 3ZM5.5 5H19.5C20.2956 5 21.0587 5.31607 21.6213 5.87868C22.1839 6.44129 22.5 7.20435 22.5 8H2.5C2.5 7.20435 2.81607 6.44129 3.37868 5.87868C3.94129 5.31607 4.70435 5 5.5 5ZM19.5 19H5.5C4.70435 19 3.94129 18.6839 3.37868 18.1213C2.81607 17.5587 2.5 16.7956 2.5 16V10H22.5V16C22.5 16.7956 22.1839 17.5587 21.6213 18.1213C21.0587 18.6839 20.2956 19 19.5 19Z" fill="#374957"/>
</g>
<defs>
<clipPath id="clip0_4_1130">
<rect width="24" height="24" fill="white" transform="translate(0.5)"/>
</clipPath>
</defs>
</svg>
