<svg width="25" height="24" viewBox="0 0 25 24" fill="none" xmlns="http://www.w3.org/2000/svg">
<g id="fi-rr-transform" clip-path="url(#clip0_31_1754)">
<path id="Vector" d="M19.5 24H18.5C18.2348 24 17.9804 23.8946 17.7929 23.7071C17.6054 23.5196 17.5 23.2652 17.5 23C17.5 22.7348 17.6054 22.4804 17.7929 22.2929C17.9804 22.1054 18.2348 22 18.5 22H19.5C20.2956 22 21.0587 21.6839 21.6213 21.1213C22.1839 20.5587 22.5 19.7956 22.5 19V18C22.5 17.7348 22.6054 17.4804 22.7929 17.2929C22.9804 17.1054 23.2348 17 23.5 17C23.7652 17 24.0196 17.1054 24.2071 17.2929C24.3946 17.4804 24.5 17.7348 24.5 18V19C24.4984 20.3256 23.9711 21.5964 23.0338 22.5338C22.0964 23.4711 20.8256 23.9984 19.5 24ZM24.5 6V5C24.4984 3.67441 23.9711 2.40356 23.0338 1.46622C22.0964 0.528882 20.8256 0.00158786 19.5 0L18.5 0C18.2348 0 17.9804 0.105357 17.7929 0.292893C17.6054 0.48043 17.5 0.734784 17.5 1C17.5 1.26522 17.6054 1.51957 17.7929 1.70711C17.9804 1.89464 18.2348 2 18.5 2H19.5C20.2956 2 21.0587 2.31607 21.6213 2.87868C22.1839 3.44129 22.5 4.20435 22.5 5V6C22.5 6.26522 22.6054 6.51957 22.7929 6.70711C22.9804 6.89464 23.2348 7 23.5 7C23.7652 7 24.0196 6.89464 24.2071 6.70711C24.3946 6.51957 24.5 6.26522 24.5 6ZM7.5 23C7.5 22.7348 7.39464 22.4804 7.20711 22.2929C7.01957 22.1054 6.76522 22 6.5 22H5.5C4.70435 22 3.94129 21.6839 3.37868 21.1213C2.81607 20.5587 2.5 19.7956 2.5 19V18C2.5 17.7348 2.39464 17.4804 2.20711 17.2929C2.01957 17.1054 1.76522 17 1.5 17C1.23478 17 0.98043 17.1054 0.792893 17.2929C0.605357 17.4804 0.5 17.7348 0.5 18L0.5 19C0.501588 20.3256 1.02888 21.5964 1.96622 22.5338C2.90356 23.4711 4.17441 23.9984 5.5 24H6.5C6.76522 24 7.01957 23.8946 7.20711 23.7071C7.39464 23.5196 7.5 23.2652 7.5 23ZM2.5 6V5C2.5 4.20435 2.81607 3.44129 3.37868 2.87868C3.94129 2.31607 4.70435 2 5.5 2H6.5C6.76522 2 7.01957 1.89464 7.20711 1.70711C7.39464 1.51957 7.5 1.26522 7.5 1C7.5 0.734784 7.39464 0.48043 7.20711 0.292893C7.01957 0.105357 6.76522 0 6.5 0L5.5 0C4.17441 0.00158786 2.90356 0.528882 1.96622 1.46622C1.02888 2.40356 0.501588 3.67441 0.5 5L0.5 6C0.5 6.26522 0.605357 6.51957 0.792893 6.70711C0.98043 6.89464 1.23478 7 1.5 7C1.76522 7 2.01957 6.89464 2.20711 6.70711C2.39464 6.51957 2.5 6.26522 2.5 6ZM16.5 12C16.5 11.2089 16.2654 10.4355 15.8259 9.77772C15.3864 9.11992 14.7616 8.60723 14.0307 8.30448C13.2998 8.00173 12.4956 7.92252 11.7196 8.07686C10.9437 8.2312 10.231 8.61216 9.67157 9.17157C9.11216 9.73098 8.7312 10.4437 8.57686 11.2196C8.42252 11.9956 8.50173 12.7998 8.80448 13.5307C9.10723 14.2616 9.61992 14.8864 10.2777 15.3259C10.9355 15.7654 11.7089 16 12.5 16C13.5609 16 14.5783 15.5786 15.3284 14.8284C16.0786 14.0783 16.5 13.0609 16.5 12ZM14.5 12C14.5 12.3956 14.3827 12.7822 14.1629 13.1111C13.9432 13.44 13.6308 13.6964 13.2654 13.8478C12.8999 13.9991 12.4978 14.0387 12.1098 13.9616C11.7219 13.8844 11.3655 13.6939 11.0858 13.4142C10.8061 13.1345 10.6156 12.7781 10.5384 12.3902C10.4613 12.0022 10.5009 11.6001 10.6522 11.2346C10.8036 10.8692 11.06 10.5568 11.3889 10.3371C11.7178 10.1173 12.1044 10 12.5 10C13.0304 10 13.5391 10.2107 13.9142 10.5858C14.2893 10.9609 14.5 11.4696 14.5 12Z" fill="white"/>
</g>
<defs>
<clipPath id="clip0_31_1754">
<rect width="24" height="24" fill="white" transform="translate(0.5)"/>
</clipPath>
</defs>
</svg>
