<svg width="96" height="34" viewBox="0 0 96 34" fill="none" xmlns="http://www.w3.org/2000/svg">
<path d="M32.0528 4.92V33H25.2128V16.16L18.9328 33H13.4128L7.09279 16.12V33H0.252793V4.92H8.33279L16.2128 24.36L24.0128 4.92H32.0528ZM40.4115 8.36C39.2115 8.36 38.2249 8.01333 37.4515 7.32C36.7049 6.6 36.3315 5.72 36.3315 4.68C36.3315 3.61333 36.7049 2.73333 37.4515 2.04C38.2249 1.32 39.2115 0.959998 40.4115 0.959998C41.5849 0.959998 42.5449 1.32 43.2915 2.04C44.0649 2.73333 44.4515 3.61333 44.4515 4.68C44.4515 5.72 44.0649 6.6 43.2915 7.32C42.5449 8.01333 41.5849 8.36 40.4115 8.36ZM43.8115 10.68V33H36.9715V10.68H43.8115Z" fill="#0B0A0A"/>
<path d="M62.3684 10.44C64.9818 10.44 67.0618 11.2933 68.6084 13C70.1818 14.68 70.9684 17 70.9684 19.96V33H64.1684V20.88C64.1684 19.3867 63.7818 18.2267 63.0084 17.4C62.2351 16.5733 61.1951 16.16 59.8884 16.16C58.5818 16.16 57.5418 16.5733 56.7684 17.4C55.9951 18.2267 55.6084 19.3867 55.6084 20.88V33H48.7684V10.68H55.6084V13.64C56.3018 12.6533 57.2351 11.88 58.4084 11.32C59.5818 10.7333 60.9018 10.44 62.3684 10.44ZM88.9215 29.88C88.3349 30.92 87.3615 31.7733 86.0015 32.44C84.6415 33.1067 83.1882 33.44 81.6415 33.44C80.2815 33.44 79.0415 33.1733 77.9215 32.64C76.8282 32.08 75.9615 31.3067 75.3215 30.32C74.6815 29.3333 74.3615 28.1867 74.3615 26.88C74.3615 24.8267 75.1615 23.16 76.7615 21.88C78.3615 20.5733 80.7482 19.92 83.9215 19.92H88.9215C88.8682 18.6933 88.5215 17.7333 87.8815 17.04C87.2682 16.32 86.4149 15.96 85.3215 15.96C84.3349 15.96 83.5215 16.2133 82.8815 16.72C82.2415 17.2267 81.8149 17.92 81.6015 18.8H74.7615C75.0815 17.1733 75.7215 15.72 76.6815 14.44C77.6415 13.16 78.8682 12.16 80.3615 11.44C81.8815 10.6933 83.5749 10.32 85.4415 10.32C87.4415 10.32 89.2282 10.7067 90.8015 11.48C92.3749 12.2533 93.6015 13.3733 94.4815 14.84C95.3615 16.28 95.8015 17.96 95.8015 19.88V33H88.9215V29.88ZM84.0415 28.28C84.8415 28.28 85.6149 28.1067 86.3615 27.76C87.1082 27.3867 87.7082 26.8667 88.1615 26.2C88.6415 25.5067 88.8815 24.72 88.8815 23.84V23.56H84.6415C83.5215 23.56 82.6815 23.7867 82.1215 24.24C81.5882 24.6667 81.3215 25.24 81.3215 25.96C81.3215 26.68 81.5615 27.2533 82.0415 27.68C82.5215 28.08 83.1882 28.28 84.0415 28.28Z" fill="#B82F46"/>
</svg>
