<svg width="222" height="233" viewBox="0 0 222 233" fill="none" xmlns="http://www.w3.org/2000/svg">
<path fill-rule="evenodd" clip-rule="evenodd" d="M111 212.581C161.348 212.581 202.163 171.766 202.163 121.418C202.163 71.0704 161.348 30.2555 111 30.2555C60.6524 30.2555 19.8375 71.0704 19.8375 121.418C19.8375 171.766 60.6524 212.581 111 212.581Z" stroke="#3AD29F" stroke-width="0.613889" stroke-dasharray="3.68 3.68"/>
<path fill-rule="evenodd" clip-rule="evenodd" d="M111 231.918C172.027 231.918 221.5 182.445 221.5 121.418C221.5 60.3905 172.027 10.918 111 10.918C49.9725 10.918 0.5 60.3905 0.5 121.418C0.5 182.445 49.9725 231.918 111 231.918Z" stroke="#3AD29F" stroke-width="0.613889" stroke-dasharray="3.68 3.68"/>
<path d="M184.955 156.621C184.958 143.756 175.17 133.002 162.362 131.798C149.554 130.593 137.932 139.334 135.537 151.974L58.9269 149.896L59.7679 163.058C59.7679 163.058 48.8438 188.264 106.258 194.98V220.457H172.631V178.098C180.258 173.632 184.948 165.46 184.955 156.621Z" fill="url(#paint0_linear_26_491)"/>
<path d="M62.3984 163.611C62.3984 163.611 51.9378 187.749 106.921 194.188V218.597H170.486V153.957L61.582 151.004L62.3984 163.611Z" fill="#BE7C5E"/>
<path d="M94.1671 62.8806C90.7168 68.3253 83.517 69.9613 78.0526 66.5425L43.9234 44.0527C38.4788 40.6023 36.8427 33.4026 40.2616 27.9381C43.7114 22.5009 50.9019 20.8657 56.3639 24.2762L90.493 46.7661C95.942 50.2124 97.5837 57.413 94.1671 62.8806Z" fill="url(#paint1_linear_26_491)"/>
<path d="M92.2764 61.6529C89.0692 66.7138 82.377 68.2346 77.2975 65.0569L45.5625 44.1355C40.5016 40.9283 38.9808 34.2361 42.1585 29.1567C45.3657 24.0958 52.0579 22.5749 57.1374 25.7526L88.8662 46.6617C93.9368 49.8674 95.4613 56.5693 92.2764 61.6529Z" fill="#BE7C5E"/>
<path d="M158.42 181.315C171.603 181.315 182.291 170.628 182.291 157.444C182.291 144.26 171.603 133.573 158.42 133.573C145.236 133.573 134.549 144.26 134.549 157.444C134.549 170.628 145.236 181.315 158.42 181.315Z" fill="#BE7C5E"/>
<path d="M154.123 0H62.6777C60.6011 0 58.9177 1.68344 58.9177 3.76007V174.869C58.9177 176.946 60.6011 178.629 62.6777 178.629H154.123C156.199 178.629 157.883 176.946 157.883 174.869V3.76007C157.883 1.68344 156.199 0 154.123 0Z" fill="url(#paint2_linear_26_491)"/>
<path d="M152.355 2.41565H64.4396C62.1273 2.41565 60.2529 4.29011 60.2529 6.60238V172.033C60.2529 174.345 62.1273 176.22 64.4396 176.22H152.355C154.667 176.22 156.541 174.345 156.541 172.033V6.60238C156.541 4.29011 154.667 2.41565 152.355 2.41565Z" fill="white"/>
<path d="M132.587 6.77426C132.012 10.5828 128.744 13.4022 124.892 13.4135H91.6379C87.7873 13.4007 84.5213 10.5817 83.9459 6.77426H66.3273C65.3572 6.77426 64.4266 7.15824 63.7403 7.84391C63.0541 8.52958 62.6685 9.45989 62.6685 10.43V168.199C62.6685 169.17 63.0525 170.1 63.7382 170.786C64.4238 171.473 65.3541 171.858 66.3242 171.858H150.47C151.44 171.858 152.371 171.474 153.057 170.789C153.743 170.103 154.129 169.173 154.129 168.202V10.433C154.129 9.46295 153.745 8.53232 153.059 7.84608C152.373 7.15984 151.443 6.77426 150.473 6.77426H132.587Z" fill="#2F56F8"/>
<path d="M118.649 8.85228H98.4183C98.0793 8.85228 97.8044 9.12713 97.8044 9.46617V9.57974C97.8044 9.91878 98.0793 10.1936 98.4183 10.1936H118.649C118.988 10.1936 119.263 9.91878 119.263 9.57974V9.46617C119.263 9.12713 118.988 8.85228 118.649 8.85228Z" fill="#DBDBDB"/>
<path d="M123.821 10.3894C124.373 10.3894 124.821 9.94172 124.821 9.38943C124.821 8.83715 124.373 8.38943 123.821 8.38943C123.269 8.38943 122.821 8.83715 122.821 9.38943C122.821 9.94172 123.269 10.3894 123.821 10.3894Z" fill="#DBDBDB"/>
<path d="M173.85 161.655C166.922 163.258 162.168 158.739 160.565 151.815L144.647 92.7064C143.063 85.7549 147.39 78.8289 154.331 77.2027C161.283 75.6188 168.209 79.945 169.835 86.8868L182.825 147.521C184.427 154.448 180.775 160.053 173.85 161.655Z" fill="url(#paint3_linear_26_491)"/>
<path d="M168.049 88.3337C166.698 82.4883 160.865 78.8446 155.02 80.1952C149.174 81.5458 145.531 87.3792 146.881 93.2245L161.519 156.576C162.869 162.421 168.703 166.065 174.548 164.714C180.393 163.363 184.037 157.53 182.686 151.685L168.049 88.3337Z" fill="#BE7C5E"/>
<path d="M182.19 210.61H91.334V231.789H182.19V210.61Z" fill="url(#paint4_linear_26_491)"/>
<path d="M179.734 213.065H93.7896V229.64H179.734V213.065Z" fill="#4D8AF0"/>
<path d="M80.9194 126.289C77.511 131.669 70.3973 133.286 64.9982 129.908L42.1094 115.098C36.7294 111.69 35.1125 104.576 38.4905 99.1768C41.8989 93.7969 49.0126 92.18 54.4117 95.5579L77.3005 110.368C82.6805 113.776 84.2974 120.89 80.9194 126.289Z" fill="url(#paint5_linear_26_491)"/>
<path d="M75.1735 157.637C71.7346 163.067 64.5562 164.699 59.108 161.29L44.9302 150.952C39.501 147.513 37.8689 140.335 41.2776 134.887C44.7164 129.457 51.8948 127.825 57.3431 131.234L71.5208 141.575C76.9482 145.014 78.5801 152.19 75.1735 157.637Z" fill="url(#paint6_linear_26_491)"/>
<g opacity="0.5">
<path opacity="0.5" d="M108.397 116.924C123.644 116.924 136.004 104.564 136.004 89.3178C136.004 74.0711 123.644 61.7112 108.397 61.7112C93.1504 61.7112 80.7905 74.0711 80.7905 89.3178C80.7905 104.564 93.1504 116.924 108.397 116.924Z" fill="url(#paint7_linear_26_491)"/>
</g>
<path d="M108.397 115.301C122.747 115.301 134.38 103.668 134.38 89.3178C134.38 74.9678 122.747 63.3349 108.397 63.3349C94.0472 63.3349 82.4142 74.9678 82.4142 89.3178C82.4142 103.668 94.0472 115.301 108.397 115.301Z" fill="#69F0AE"/>
<path d="M97.12 85.8493L106.862 94.7814L120.666 74.4831L125.54 78.544L106.862 102.903L93.0591 87.4761L97.12 85.8493Z" fill="white"/>
<path d="M74.0285 156.867C70.8213 161.928 64.1291 163.449 59.0497 160.271L45.8265 150.645C40.7656 147.438 39.2448 140.746 42.4225 135.666C45.6297 130.605 52.3219 129.085 57.4014 132.262L70.6215 141.907C75.6722 145.112 77.1932 151.791 74.0285 156.867Z" fill="#BE7C5E"/>
<path d="M79.661 125.476C76.4538 130.537 69.7615 132.058 64.6821 128.88L43.1469 114.945C38.086 111.737 36.5651 105.045 39.7428 99.9657C42.9501 94.9048 49.6423 93.3839 54.7217 96.5616L76.257 110.497C81.3179 113.704 82.8387 120.396 79.661 125.476Z" fill="#BE7C5E"/>
<path d="M86.8373 95.0883C83.4121 100.492 76.2663 102.115 70.8424 98.7225L41.8362 79.8363C36.4327 76.411 34.8091 69.2653 38.202 63.8414C41.6272 58.4379 48.7729 56.8143 54.1968 60.2072L83.2031 79.0934C88.6066 82.5187 90.2302 89.6644 86.8373 95.0883Z" fill="url(#paint8_linear_26_491)"/>
<path d="M85.2965 94.1061C82.0892 99.167 75.397 100.688 70.3176 97.5101L43.1499 79.8209C38.089 76.6137 36.5682 69.9215 39.7459 64.842C42.9531 59.7811 49.6453 58.2603 54.7248 61.438L81.8894 79.1272C86.9513 82.3334 88.4736 89.0258 85.2965 94.1061Z" fill="#BE7C5E"/>
<defs>
<linearGradient id="paint0_linear_26_491" x1="121.946" y1="220.472" x2="121.946" y2="131.691" gradientUnits="userSpaceOnUse">
<stop stop-color="#808080" stop-opacity="0.25"/>
<stop offset="0.54" stop-color="#808080" stop-opacity="0.12"/>
<stop offset="1" stop-color="#808080" stop-opacity="0.1"/>
</linearGradient>
<linearGradient id="paint1_linear_26_491" x1="67.2113" y1="68.332" x2="67.2113" y2="22.4929" gradientUnits="userSpaceOnUse">
<stop stop-color="#808080" stop-opacity="0.25"/>
<stop offset="0.54" stop-color="#808080" stop-opacity="0.12"/>
<stop offset="1" stop-color="#808080" stop-opacity="0.1"/>
</linearGradient>
<linearGradient id="paint2_linear_26_491" x1="108.4" y1="178.626" x2="108.4" y2="-0.00306638" gradientUnits="userSpaceOnUse">
<stop stop-color="#808080" stop-opacity="0.25"/>
<stop offset="0.54" stop-color="#808080" stop-opacity="0.12"/>
<stop offset="1" stop-color="#808080" stop-opacity="0.1"/>
</linearGradient>
<linearGradient id="paint3_linear_26_491" x1="163.758" y1="161.975" x2="163.758" y2="76.8712" gradientUnits="userSpaceOnUse">
<stop stop-color="#808080" stop-opacity="0.25"/>
<stop offset="0.54" stop-color="#808080" stop-opacity="0.12"/>
<stop offset="1" stop-color="#808080" stop-opacity="0.1"/>
</linearGradient>
<linearGradient id="paint4_linear_26_491" x1="136.768" y1="231.783" x2="136.768" y2="210.604" gradientUnits="userSpaceOnUse">
<stop stop-color="#808080" stop-opacity="0.25"/>
<stop offset="0.54" stop-color="#808080" stop-opacity="0.12"/>
<stop offset="1" stop-color="#808080" stop-opacity="0.1"/>
</linearGradient>
<linearGradient id="paint5_linear_26_491" x1="59.7004" y1="131.673" x2="59.7004" y2="93.7961" gradientUnits="userSpaceOnUse">
<stop stop-color="#808080" stop-opacity="0.25"/>
<stop offset="0.54" stop-color="#808080" stop-opacity="0.12"/>
<stop offset="1" stop-color="#808080" stop-opacity="0.1"/>
</linearGradient>
<linearGradient id="paint6_linear_26_491" x1="58.2271" y1="163.07" x2="58.2271" y2="129.451" gradientUnits="userSpaceOnUse">
<stop stop-color="#808080" stop-opacity="0.25"/>
<stop offset="0.54" stop-color="#808080" stop-opacity="0.12"/>
<stop offset="1" stop-color="#808080" stop-opacity="0.1"/>
</linearGradient>
<linearGradient id="paint7_linear_26_491" x1="108.397" y1="116.924" x2="108.397" y2="61.7081" gradientUnits="userSpaceOnUse">
<stop stop-color="#808080" stop-opacity="0.25"/>
<stop offset="0.54" stop-color="#808080" stop-opacity="0.12"/>
<stop offset="1" stop-color="#808080" stop-opacity="0.1"/>
</linearGradient>
<linearGradient id="paint8_linear_26_491" x1="62.5181" y1="100.506" x2="62.5181" y2="58.4453" gradientUnits="userSpaceOnUse">
<stop stop-color="#808080" stop-opacity="0.25"/>
<stop offset="0.54" stop-color="#808080" stop-opacity="0.12"/>
<stop offset="1" stop-color="#808080" stop-opacity="0.1"/>
</linearGradient>
</defs>
</svg>
