<svg width="183" height="169" viewBox="0 0 183 169" fill="none" xmlns="http://www.w3.org/2000/svg">
<path d="M45.1566 33.5912C44.8201 23.0549 42.7563 13.1204 41.0897 7.56526C40.5567 5.78833 41.2167 3.86938 42.7301 2.79641C44.2435 1.72344 46.2728 1.73569 47.7732 2.82685C48.0636 3.03807 48.7428 3.42064 50.162 4.19761L50.3439 4.29719C55.4164 7.07321 65.8281 12.7713 72.2269 23.3044C78.5885 22.0894 85.4443 21.4537 92.784 21.4537C118.027 21.4537 137.554 28.9859 150.8 41.6444C164.046 54.3039 170.599 71.7032 170.599 90.6225C170.599 108.594 162.901 124.874 150.436 137.089L156.586 142.947C160.908 147.064 161.075 153.905 156.958 158.227C156.304 158.914 155.581 159.496 154.81 159.972C153.846 162.885 151.85 165.469 148.984 167.124C142.781 170.705 134.849 168.58 131.267 162.377L125.973 153.206C115.892 157.435 104.637 159.791 92.784 159.791C85.0357 159.791 77.8262 159.083 71.1683 157.732C71.1133 163.654 66.2958 168.437 60.3611 168.437C59.1071 168.437 57.9029 168.224 56.783 167.831C53.1647 169.364 48.8958 169.24 45.2305 167.124C39.0274 163.542 36.9021 155.611 40.4834 149.408L42.5047 145.907C30.3505 137.476 22.1822 125.75 18.0766 112.238H14.9691C7.80648 112.238 2 106.431 2 99.2686V81.9764C2 74.8137 7.80648 69.0073 14.9691 69.0073H18.0766C22.4755 54.5302 31.5368 42.1076 45.1566 33.5912Z" fill="#021024" fill-opacity="0.1"/>
<path d="M117.477 120.417C114.626 123.41 114.742 128.148 117.735 130.999L139.647 151.869C142.64 154.72 147.378 154.605 150.229 151.612C153.08 148.619 152.964 143.881 149.971 141.03L128.059 120.159C125.066 117.308 120.328 117.424 117.477 120.417Z" fill="#1BB093" stroke="#2B6F95" stroke-width="2" stroke-linecap="round" stroke-linejoin="round"/>
<path d="M56.038 115.561C51.9044 115.561 48.5535 118.912 48.5535 123.045V153.307C48.5535 157.44 51.9044 160.791 56.038 160.791C60.1716 160.791 63.5226 157.44 63.5226 153.307V123.045C63.5226 118.912 60.1716 115.561 56.038 115.561Z" fill="#1BB093" stroke="#2B6F95" stroke-width="2" stroke-linecap="round" stroke-linejoin="round"/>
<mask id="path-4-outside-1_18_297" maskUnits="userSpaceOnUse" x="0" y="0" width="164" height="163" fill="black">
<rect fill="white" width="164" height="163"/>
<path fill-rule="evenodd" clip-rule="evenodd" d="M65.6555 23.8676C60.1597 12.6435 49.2919 6.69354 43.7629 3.66651C42.4778 2.96294 41.4812 2.41728 40.9074 2C42.8014 8.31319 45.1379 19.7893 45.2026 31.6891C30.3574 40.2081 20.9446 53.4327 17.0407 69.0073H6C3.79086 69.0073 2 70.7981 2 73.0073V99.5917C2 101.801 3.79086 103.592 6 103.592H17.0407C20.8362 118.734 29.8388 131.655 43.9785 140.189L39.5812 147.806C37.372 151.632 38.683 156.525 42.5094 158.734L43.6284 159.38C47.4548 161.589 52.3475 160.278 54.5567 156.452L59.8965 147.203C68.2615 149.753 77.7854 151.145 88.4609 151.145C101.125 151.145 113.041 148.319 123.442 143.342L131.011 156.452C133.22 160.278 138.113 161.589 141.939 159.38L143.059 158.734C146.885 156.525 148.196 151.632 145.987 147.806L138.089 134.127C152.756 122.272 161.953 105.233 161.953 86.2995C161.953 50.4862 137.215 21.4538 88.4609 21.4538C80.1621 21.4538 72.5591 22.295 65.6555 23.8676Z"/>
</mask>
<path fill-rule="evenodd" clip-rule="evenodd" d="M65.6555 23.8676C60.1597 12.6435 49.2919 6.69354 43.7629 3.66651C42.4778 2.96294 41.4812 2.41728 40.9074 2C42.8014 8.31319 45.1379 19.7893 45.2026 31.6891C30.3574 40.2081 20.9446 53.4327 17.0407 69.0073H6C3.79086 69.0073 2 70.7981 2 73.0073V99.5917C2 101.801 3.79086 103.592 6 103.592H17.0407C20.8362 118.734 29.8388 131.655 43.9785 140.189L39.5812 147.806C37.372 151.632 38.683 156.525 42.5094 158.734L43.6284 159.38C47.4548 161.589 52.3475 160.278 54.5567 156.452L59.8965 147.203C68.2615 149.753 77.7854 151.145 88.4609 151.145C101.125 151.145 113.041 148.319 123.442 143.342L131.011 156.452C133.22 160.278 138.113 161.589 141.939 159.38L143.059 158.734C146.885 156.525 148.196 151.632 145.987 147.806L138.089 134.127C152.756 122.272 161.953 105.233 161.953 86.2995C161.953 50.4862 137.215 21.4538 88.4609 21.4538C80.1621 21.4538 72.5591 22.295 65.6555 23.8676Z" fill="#78D3A9"/>
<path d="M65.6555 23.8676L63.8593 24.7471C64.2673 25.5805 65.195 26.0238 66.0997 25.8177L65.6555 23.8676ZM43.7629 3.66651L42.8025 5.4208V5.4208L43.7629 3.66651ZM40.9074 2L42.0838 0.382527C41.3896 -0.122282 40.4508 -0.127947 39.7507 0.36845C39.0505 0.864847 38.7451 1.75262 38.9918 2.57469L40.9074 2ZM45.2026 31.6891L46.198 33.4238C46.8228 33.0653 47.2065 32.3985 47.2026 31.6782L45.2026 31.6891ZM17.0407 69.0073V71.0073C17.958 71.0073 18.7576 70.3833 18.9807 69.4936L17.0407 69.0073ZM17.0407 103.592L18.9807 103.105C18.7576 102.216 17.958 101.592 17.0407 101.592V103.592ZM43.9785 140.189L45.7105 141.189C46.2552 140.246 45.9447 139.04 45.012 138.477L43.9785 140.189ZM39.5812 147.806L41.3132 148.806L39.5812 147.806ZM42.5094 158.734L43.5094 157.002H43.5094L42.5094 158.734ZM43.6284 159.38L42.6284 161.112H42.6284L43.6284 159.38ZM54.5567 156.452L56.2887 157.452L54.5567 156.452ZM59.8965 147.203L60.4798 145.29C59.5896 145.018 58.6298 145.397 58.1645 146.203L59.8965 147.203ZM123.442 143.342L125.174 142.342C124.652 141.437 123.522 141.087 122.579 141.538L123.442 143.342ZM131.011 156.452L132.743 155.452L131.011 156.452ZM141.939 159.38L142.939 161.112H142.939L141.939 159.38ZM143.059 158.734L142.059 157.002H142.059L143.059 158.734ZM145.987 147.806L147.719 146.806L145.987 147.806ZM138.089 134.127L136.832 132.572C136.066 133.19 135.865 134.274 136.357 135.127L138.089 134.127ZM67.4517 22.9881C61.6444 11.1277 50.2156 4.91913 44.7234 1.91221L42.8025 5.4208C48.3682 8.46794 58.6751 14.1594 63.8593 24.7471L67.4517 22.9881ZM44.7234 1.91221C43.3763 1.17469 42.5264 0.704479 42.0838 0.382527L39.7311 3.61747C40.4359 4.13008 41.5794 4.75119 42.8025 5.4208L44.7234 1.91221ZM38.9918 2.57469C40.8399 8.73518 43.1391 20.0204 43.2026 31.7L47.2026 31.6782C47.1366 19.5582 44.7628 7.8912 42.8231 1.42531L38.9918 2.57469ZM44.2071 29.9544C28.8695 38.756 19.1308 52.4431 15.1007 68.521L18.9807 69.4936C22.7585 54.4222 31.8452 41.6602 46.198 33.4238L44.2071 29.9544ZM17.0407 67.0073H6V71.0073H17.0407V67.0073ZM6 67.0073C2.68629 67.0073 0 69.6936 0 73.0073H4C4 71.9027 4.89543 71.0073 6 71.0073V67.0073ZM0 73.0073V99.5917H4V73.0073H0ZM0 99.5917C0 102.905 2.68629 105.592 6 105.592V101.592C4.89543 101.592 4 100.696 4 99.5917H0ZM6 105.592H17.0407V101.592H6V105.592ZM15.1007 104.078C19.0184 119.707 28.3316 133.081 42.945 141.902L45.012 138.477C31.3461 130.228 22.654 117.76 18.9807 103.105L15.1007 104.078ZM42.2464 139.189L37.8491 146.806L41.3132 148.806L45.7105 141.189L42.2464 139.189ZM37.8491 146.806C35.0877 151.589 36.7265 157.704 41.5094 160.466L43.5094 157.002C40.6396 155.345 39.6564 151.675 41.3132 148.806L37.8491 146.806ZM41.5094 160.466L42.6284 161.112L44.6285 157.648L43.5094 157.002L41.5094 160.466ZM42.6284 161.112C47.4114 163.873 53.5273 162.235 56.2887 157.452L52.8246 155.452C51.1677 158.322 47.4982 159.305 44.6284 157.648L42.6284 161.112ZM56.2887 157.452L61.6286 148.203L58.1645 146.203L52.8246 155.452L56.2887 157.452ZM59.3133 149.116C67.8893 151.731 77.6123 153.145 88.4609 153.145V149.145C77.9586 149.145 68.6336 147.776 60.4798 145.29L59.3133 149.116ZM88.4609 153.145C101.423 153.145 113.634 150.252 124.306 145.146L122.579 141.538C112.448 146.386 100.827 149.145 88.4609 149.145V153.145ZM121.71 144.342L129.279 157.452L132.743 155.452L125.174 142.342L121.71 144.342ZM129.279 157.452C132.041 162.235 138.157 163.873 142.939 161.112L140.939 157.648C138.07 159.305 134.4 158.322 132.743 155.452L129.279 157.452ZM142.939 161.112L144.059 160.466L142.059 157.002L140.939 157.648L142.939 161.112ZM144.059 160.466C148.841 157.705 150.48 151.589 147.719 146.806L144.255 148.806C145.912 151.675 144.928 155.345 142.059 157.002L144.059 160.466ZM147.719 146.806L139.821 133.127L136.357 135.127L144.255 148.806L147.719 146.806ZM139.347 135.682C154.422 123.497 163.953 105.912 163.953 86.2995H159.953C159.953 104.555 151.09 121.047 136.832 132.572L139.347 135.682ZM163.953 86.2995C163.953 67.9243 157.598 51.1634 144.871 39.0008C132.146 26.8387 113.239 19.4538 88.4609 19.4538V23.4538C112.437 23.4538 130.276 30.5851 142.108 41.8925C153.939 53.1994 159.953 68.8613 159.953 86.2995H163.953ZM88.4609 19.4538C80.0273 19.4538 72.2743 20.3086 65.2113 21.9176L66.0997 25.8177C72.8439 24.2813 80.2968 23.4538 88.4609 23.4538V19.4538Z" fill="#2B6F95" mask="url(#path-4-outside-1_18_297)"/>
<path fill-rule="evenodd" clip-rule="evenodd" d="M56.3362 12.0385C58.2279 14.2318 59.9501 16.7213 61.3325 19.5445C61.8461 19.4275 62.3636 19.3146 62.8849 19.2057C60.9271 16.4333 58.6611 14.0625 56.3362 12.0385ZM142.206 39.2562C152.466 50.6658 157.63 65.6133 157.63 81.9764C157.63 100.91 148.433 117.949 133.766 129.804L141.341 142.923C143.728 147.058 142.311 152.346 138.176 154.734C135.649 156.193 132.692 156.231 130.229 155.097L130.688 155.892C133.076 160.028 138.364 161.444 142.499 159.057C146.634 156.669 148.051 151.382 145.664 147.246L138.089 134.127C152.756 122.272 161.953 105.233 161.953 86.2994C161.953 67.7792 155.337 51.0724 142.206 39.2562ZM122.003 144.013L119.119 139.019C108.718 143.996 96.8019 146.822 84.1379 146.822C73.4624 146.822 63.9385 145.43 55.5736 142.88L50.5567 151.569C48.3142 155.453 43.5128 156.939 39.5112 155.127C40.2298 156.722 41.4379 158.115 43.069 159.057C47.2043 161.444 52.4922 160.028 54.8798 155.892L59.8966 147.203C68.2615 149.753 77.7855 151.145 88.461 151.145C100.544 151.145 111.947 148.572 122.003 144.013ZM39.0616 136.895L39.6555 135.866C36.2738 133.825 33.186 131.533 30.3929 129.02C32.9631 131.878 35.853 134.514 39.0616 136.895ZM13.963 103.592C13.4994 102.173 13.0843 100.731 12.7177 99.2686H6.32309C5.05441 99.2686 3.84956 98.9953 2.76416 98.5045C4.12081 101.504 7.13972 103.592 10.6461 103.592H13.963Z" fill="#1BB093"/>
<path d="M71.1841 31.1234C87.229 28.5013 96.0512 29.2054 111.477 34.3393" stroke="#1BB093" stroke-width="4" stroke-linecap="round" stroke-linejoin="round"/>
<path fill-rule="evenodd" clip-rule="evenodd" d="M77.5474 114.365C104.051 113.474 125.207 95.4432 125.207 73.3303C125.207 50.6485 108.473 32.2613 75.4919 32.2613C42.5111 32.2613 25.7769 50.6485 25.7769 73.3303C25.7769 87.4976 32.3056 99.9894 45.2442 107.372C47.8911 102.504 52.9454 99.2685 60.3611 99.2685C70.9391 99.2685 76.7122 105.851 77.5474 114.365Z" fill="#92EAC1"/>
<path d="M118.722 75.4918C118.722 89.8171 107.109 101.43 92.784 101.43C75.5766 101.43 66.8457 89.8171 66.8457 75.4918C66.8457 61.1665 75.5766 49.5535 92.784 49.5535C109.991 49.5535 118.722 61.1665 118.722 75.4918Z" fill="#C4FFE4"/>
<path d="M62.5226 52.7958C62.5226 58.1678 57.2 62.5226 50.6342 62.5226C42.7475 62.5226 38.7458 58.1678 38.7458 52.7958C38.7458 47.4238 42.7475 43.0689 50.6342 43.0689C58.5209 43.0689 62.5226 47.4238 62.5226 52.7958Z" fill="#C3FFE3"/>
<path d="M47.3921 38.7459C42.2456 40.4713 30.7175 48.5069 25.7769 66.8457" stroke="#9FFAD0" stroke-width="2" stroke-linecap="round" stroke-linejoin="round"/>
<path d="M164.977 93.6475C170.278 92.5986 178.316 85.4994 174.342 74.1668C169.285 59.7434 154.221 67.1312 156.75 74.3428C160.326 84.5416 181.117 80.5645 176.706 58.2749C174.125 45.2304 164.976 44.1497 160.872 45.2304" stroke="#2B6F95" stroke-width="2" stroke-linecap="round" stroke-linejoin="round"/>
<path d="M40.9075 58.1996C43.2655 61.4619 50.0252 66.029 58.1997 58.1996" stroke="#2B6F95" stroke-width="2" stroke-linecap="round" stroke-linejoin="round"/>
<path d="M49.5535 10.6461C52.7958 13.8884 58.1996 19.2922 60.3611 23.6152" stroke="#9FFAD0" stroke-width="2" stroke-linecap="round" stroke-linejoin="round"/>
<path d="M40.9075 116.561C46.7436 116.561 53.5524 116.561 60.3612 107.915" stroke="#2B6F95" stroke-width="2" stroke-linecap="round" stroke-linejoin="round"/>
<circle cx="126.288" cy="113.318" r="3.24228" fill="#1BB093"/>
<circle cx="137.095" cy="108.995" r="3.24228" fill="#1BB093"/>
<circle cx="129.53" cy="103.592" r="2.16152" fill="#1BB093"/>
<circle cx="144.661" cy="99.2685" r="2.16152" fill="#1BB093"/>
<circle cx="148.984" cy="88.4609" r="2.16152" fill="#1BB093"/>
<circle cx="146.822" cy="75.4918" r="2.16152" fill="#1BB093"/>
<circle cx="142.499" cy="92.784" r="2.16152" fill="#1BB093"/>
<circle cx="131.691" cy="94.9455" r="2.16152" fill="#1BB093"/>
<circle cx="144.661" cy="107.915" r="2.16152" fill="#1BB093"/>
<circle cx="142.499" cy="116.561" r="2.16152" fill="#1BB093"/>
<circle cx="131.691" cy="123.045" r="2.16152" fill="#1BB093"/>
<circle cx="129.53" cy="131.691" r="2.16152" fill="#1BB093"/>
<circle cx="116.561" cy="131.691" r="2.16152" fill="#1BB093"/>
<circle cx="107.915" cy="125.207" r="2.16152" fill="#1BB093"/>
<circle cx="125.207" cy="125.207" r="2.16152" fill="#1BB093"/>
<circle cx="114.399" cy="116.561" r="2.16152" fill="#1BB093"/>
<circle cx="154.387" cy="93.8648" r="3.24228" fill="#1BB093"/>
<path d="M103.592 61.0816C101.167 59.2606 98.2558 58.1996 95.1255 58.1996C86.6697 58.1996 79.8149 65.9416 79.8149 75.4918C79.8149 85.042 86.6697 92.784 95.1255 92.784C98.2558 92.784 101.167 91.7229 103.592 89.9019" stroke="#2B6F95" stroke-width="3" stroke-linecap="round" stroke-linejoin="round"/>
<path d="M73.3303 79.8148H90.6225" stroke="#2B6F95" stroke-width="2" stroke-linecap="round" stroke-linejoin="round"/>
<path d="M73.3303 71.1687H90.6225" stroke="#2B6F95" stroke-width="2" stroke-linecap="round" stroke-linejoin="round"/>
</svg>
